PathFileType	4	(X/Y/Z)	Patient4_TMGait_0pt6_01_left_28.trc.trc
DataRate	CameraRate	NumFrames	NumMarkers	Units	OrigDataRate	OrigDataStartFrame	OrigNumFrames
79.545454545455	79.545454545455	4	33	mm	79.545454545455	53	       141
Frame#	Time	Sacral			L.Shoulder			Chest			R.Shoulder			Neck			R.ASIS			L.ASIS			R.Thigh.Superior			R.Thigh.Lateral			R.Thigh.Inferior			R.Patella			L.Thigh.Superior			L.Thigh.Lateral			L.Thigh.Inferior			L.Patella			L.Shank.Superior			L.Shank.Lateral			L.Shank.Inferior			R.Shank.Superior			R.Shank.Lateral			R.Shank.Inferior			R.Heel			R.Midfoot.Superior			R.Midfoot.Lateral			R.Toe			L.Heel			L.Midfoot.Lateral			L.Midfoot.Superior			L.Toe			L.Elbow			L.Wrist			R.Elbow			R.Wrist			
		X1	Y1	Z1	X2	Y2	Z2	X3	Y3	Z3	X4	Y4	Z4	X5	Y5	Z5	X6	Y6	Z6	X7	Y7	Z7	X8	Y8	Z8	X9	Y9	Z9	X10	Y10	Z10	X11	Y11	Z11	X12	Y12	Z12	X13	Y13	Z13	X14	Y14	Z14	X15	Y15	Z15	X16	Y16	Z16	X17	Y17	Z17	X18	Y18	Z18	X19	Y19	Z19	X20	Y20	Z20	X21	Y21	Z21	X22	Y22	Z22	X23	Y23	Z23	X24	Y24	Z24	X25	Y25	Z25	X26	Y26	Z26	X27	Y27	Z27	X28	Y28	Z28	X29	Y29	Z29	X30	Y30	Z30	X31	Y31	Z31	X32	Y32	Z32	X33	Y33	Z33	

53	34.673714285714	754.377079714272	1010.404260699163	444.085848435425	905.836912429313	1446.257127490582	272.410251409572	1019.841151472420	1374.632724969557	424.364548813766	944.089711367523	1435.690836808917	605.693596068133	895.221493906612	1500.317817837191	429.890156379856	983.403054479171	945.974423369976	550.345167873667	962.985252622784	969.153219987893	276.374563241448	1059.728454910458	770.827036218983	518.181751366547	1020.070654791040	651.876996908189	593.857162040328	1103.926270710415	608.476596358590	509.271740575805	1119.295901735650	493.493822913483	531.093762071454	1008.201023056162	751.715888740416	309.056797310585	912.236558599356	637.570694149557	257.249428401945	993.945220506296	558.576328915901	320.504285208805	991.959052877461	489.635662994340	333.891777000557	965.935129546322	417.861131537311	329.225796027957	875.549642738240	302.587902953718	284.780297984405	925.081271591939	193.830223937545	359.385351701734	1037.575249542440	423.553727767879	543.650545456388	916.313963163697	394.326031970054	610.174544714627	891.783035481657	285.897336110474	564.386330391438	687.263388155570	244.278332452890	548.889585837061	848.951148288745	163.073757804720	576.048215060209	740.722991856785	170.900670393040	613.789402925490	900.743630451344	41.278787156861	589.835283225999	794.213640596435	39.320924269498	407.820076994706	866.898402760526	36.164528141523	325.942764237820	951.338238917808	96.523625973954	350.882244431919	1078.989342532742	40.888293778467	320.250835512206	931.844167950803	1100.875705608035	129.243236754347	1102.231690921579	902.950617141704	109.242178022203	945.097313182867	1076.824016157459	700.728910202843	1070.088830487988	848.178523015556	689.709968030362	
54	34.686285714286	752.655776070709	1011.190917874853	443.121843175858	907.018044852112	1446.891361716764	271.617074226263	1019.556314325439	1374.818471924923	424.405736089398	942.626070557125	1436.058289312569	605.111338408451	895.407356135397	1500.962380183810	429.078372164080	981.302237337538	947.267271744405	550.574582014917	962.256967224256	969.080123252119	275.847716741909	1060.613243673002	775.237390216047	518.542895369524	1023.500954606031	655.425747533214	594.290372817120	1108.499630984564	613.850009296739	510.010561178832	1126.490115514249	499.564480924079	531.741934814816	1004.739511340378	750.984951541318	309.928156168812	907.791837964296	637.875502647096	257.289355290938	988.107983202350	558.019504306677	321.043860086465	985.187301812617	489.222903199637	334.426069149549	959.183901160769	417.758141797484	329.490993843424	868.624749384735	302.728005498742	284.790082494807	917.770882237113	193.833635560177	359.432286034597	1047.183254920586	427.293739035064	543.914978215107	926.987216683115	393.300870801777	609.905795034636	906.788655480305	284.036636309965	563.925109120384	703.874037907545	233.876982153963	547.685583557247	868.828666564990	159.963986690173	575.273114203556	760.361781547843	163.183024042088	612.947331085346	925.889158453006	40.978574867868	589.604198164439	786.585593892505	39.378653308815	407.748912552529	859.317877668808	36.167023465479	325.897296067854	943.770011629076	96.531728968617	350.814904550065	1071.401992411999	40.853098761460	320.192004838350	940.050647467536	1103.219177975369	126.738692008197	1118.804323361448	912.904124357806	106.082660234726	934.141665057284	1077.531215823983	700.195985516793	1042.865612240348	840.233280983661	690.379216710031	
55	34.698857142857	750.858428166502	1011.929558202344	442.204749016398	908.333774446418	1447.481250802877	270.974426076753	1019.337191730995	1374.893009495049	424.597749556343	941.192630990413	1436.308923858486	604.656147270684	895.640382023942	1501.516205286044	428.437800390876	979.219877584889	948.498752361128	550.901156728888	961.432915612665	968.882750661409	275.475780764539	1061.116409406895	779.320132265335	519.143791794997	1026.171918636782	658.691245847929	594.774449388018	1112.194586129657	618.782866861176	510.874512432551	1132.600930348629	505.452118325410	532.478349490481	1001.249652361024	750.228439330559	310.928134284021	903.368991038177	638.125035709690	257.372500264438	982.293022286414	557.436626630725	321.626763711165	978.462027827473	488.803308402769	334.986096451703	952.476194329754	417.627832697534	329.795154597025	861.737791854365	302.856027011441	284.824643601660	910.460970395642	193.820370813344	359.505318463889	1056.200555496158	430.732830425661	544.307362394792	937.708636656438	391.298012326180	610.080611344870	922.381453504670	281.292471934126	563.814410296608	721.762799508341	221.509869181727	547.259600445255	890.062961112948	155.985130350239	574.918547816260	781.656717113178	154.061845127113	612.819998747250	952.984893548679	40.401584404170	589.785513777337	778.967800589668	39.429388888803	407.684957152428	851.738039888651	36.164850481327	325.861140710052	936.201550850802	96.530933234022	350.765150922543	1063.820550905753	40.818412212109	320.143317004428	947.754053283403	1105.599250399729	124.588089071255	1134.573868465586	923.251861975038	103.432887177464	922.900467830998	1078.465191945503	699.723833485501	1015.700585451427	834.075051123509	691.143985127459	
56	34.711428571429	749.002552524178	1012.600645749330	441.329009946127	909.760542173523	1447.992612762696	270.489010461981	1019.180228392495	1374.838721041763	424.937178120996	939.802929989066	1436.434318989379	604.332135644108	895.914318997519	1501.959003642069	427.954405868163	977.176399062771	949.626047897919	551.321636317671	960.501890192958	968.593641463543	275.308426469424	1061.215005508452	782.951624975558	519.897510283323	1028.056688061308	661.561745612395	595.281294366108	1114.912331411261	623.105598132900	511.760283719173	1137.519286750366	510.996911669679	533.190709534722	997.786954925779	749.437325980827	311.991971464198	898.997074188033	638.303407860563	257.483123533212	976.545332999418	556.815063287475	322.224637480819	971.841504617875	488.365546136737	335.548760217593	945.856641630731	417.454010317677	330.123865022465	854.918997367149	302.962986351406	284.877390796842	903.162550607634	193.778069537873	359.605649701427	1064.509242402118	433.803887233700	544.765596566278	948.481343862604	388.379495470013	610.705353371198	938.477645701075	277.820243832407	564.053880646036	741.006312018504	207.508658656697	547.689782140388	912.525080008543	151.420301686146	575.010566191464	804.590089751851	143.909472518387	613.466863549631	981.746733814293	39.861037558917	590.383409059184	771.364583640686	39.471092710714	407.625563946375	844.158802595748	36.157369224666	325.833217919310	928.632573210527	96.519308193039	350.734414221192	1056.244787599481	40.784519623859	320.104453231309	954.945440455724	1107.949835954694	122.758492721429	1149.502496251514	933.899593591928	101.286899426314	911.357003944146	1079.641568693127	699.312939321688	988.831916995498	829.638919342954	691.999270122146	
